<svg width="24" height="25" fill="none" xmlns="http://www.w3.org/2000/svg"><path fill-rule="evenodd" clip-rule="evenodd" d="M2.4.5h19.2C22.92.5 24 1.58 24 2.9v19.2c0 1.32-1.08 2.4-2.4 2.4H2.4c-1.32 0-2.4-1.08-2.4-2.4V2.9C0 1.58 1.08.5 2.4.5Zm1.2 20.4h3.6V10.1H3.6v10.8ZM5.4 8.06c-1.2 0-2.16-.96-2.16-2.16 0-1.2.96-2.16 2.16-2.16 1.2 0 2.16.96 2.16 2.16 0 1.2-.96 2.16-2.16 2.16ZM16.8 20.9h3.6v-6.84c0-2.28-1.92-4.2-4.2-4.2-1.08 0-2.4.72-3 1.68V10.1H9.6v10.8h3.6v-6.36c0-.96.84-1.8 1.8-1.8.96 0 1.8.84 1.8 1.8v6.36Z" fill="#fff"/></svg>